<?xml version="1.0" encoding="UTF-8" standalone="yes"?>
<svg xmlns="http://www.w3.org/2000/svg" xmlns:xlink="http://www.w3.org/1999/xlink" width="32" height="32" viewBox="0 0 32 32" version="1.1">
  <defs>
    <linearGradient id="linear0" gradientUnits="userSpaceOnUse" x1="0" y1="240" x2="0" y2="0" gradientTransform="matrix(0.125,0,0,0.125,1,1)">
      <stop offset="0" style="stop-color:rgb(74.117649%,55.29412%,28.235295%);stop-opacity:1;"/>
      <stop offset="1" style="stop-color:rgb(90.980393%,72.549021%,44.313726%);stop-opacity:1;"/>
    </linearGradient>
    <linearGradient id="linear1" gradientUnits="userSpaceOnUse" x1="0" y1="0" x2="240" y2="240" gradientTransform="matrix(0.125,0,0,0.125,-0.544579,-0.482449)">
      <stop offset="0" style="stop-color:rgb(20%,20%,20%);stop-opacity:0.501961;"/>
      <stop offset="1" style="stop-color:rgb(0%,0%,0%);stop-opacity:0.12549;"/>
    </linearGradient>
    <linearGradient id="linear2" gradientUnits="userSpaceOnUse" x1="0" y1="0" x2="240" y2="240" gradientTransform="matrix(0.125,0,0,0.125,-0.544579,-0.482449)">
      <stop offset="0" style="stop-color:rgb(20%,20%,20%);stop-opacity:0.501961;"/>
      <stop offset="1" style="stop-color:rgb(0%,0%,0%);stop-opacity:0.12549;"/>
    </linearGradient>
    <linearGradient id="linear3" gradientUnits="userSpaceOnUse" x1="0" y1="0" x2="240" y2="240" gradientTransform="matrix(0.125,0,0,0.125,-0.544579,-0.482449)">
      <stop offset="0" style="stop-color:rgb(20%,20%,20%);stop-opacity:0.501961;"/>
      <stop offset="1" style="stop-color:rgb(0%,0%,0%);stop-opacity:0.12549;"/>
    </linearGradient>
    <linearGradient id="linear4" gradientUnits="userSpaceOnUse" x1="0" y1="0" x2="240" y2="240" gradientTransform="matrix(0.125,0,0,0.125,-0.544579,-0.482449)">
      <stop offset="0" style="stop-color:rgb(20%,20%,20%);stop-opacity:0.501961;"/>
      <stop offset="1" style="stop-color:rgb(0%,0%,0%);stop-opacity:0.12549;"/>
    </linearGradient>
    <linearGradient id="linear5" gradientUnits="userSpaceOnUse" x1="0" y1="0" x2="240" y2="240" gradientTransform="matrix(0.125,0,0,0.125,-0.544579,-0.482449)">
      <stop offset="0" style="stop-color:rgb(20%,20%,20%);stop-opacity:0.501961;"/>
      <stop offset="1" style="stop-color:rgb(0%,0%,0%);stop-opacity:0.12549;"/>
    </linearGradient>
    <linearGradient id="linear6" gradientUnits="userSpaceOnUse" x1="0" y1="0" x2="240" y2="240" gradientTransform="matrix(0.125,0,0,0.125,-0.544579,-0.482449)">
      <stop offset="0" style="stop-color:rgb(20%,20%,20%);stop-opacity:0.501961;"/>
      <stop offset="1" style="stop-color:rgb(0%,0%,0%);stop-opacity:0.12549;"/>
    </linearGradient>
    <linearGradient id="linear7" gradientUnits="userSpaceOnUse" x1="0" y1="0" x2="240" y2="240" gradientTransform="matrix(0.125,0,0,0.125,1,1)">
      <stop offset="0" style="stop-color:rgb(100%,100%,100%);stop-opacity:1;"/>
      <stop offset="1" style="stop-color:rgb(87.843138%,87.843138%,87.843138%);stop-opacity:1;"/>
    </linearGradient>
    <linearGradient id="linear8" gradientUnits="userSpaceOnUse" x1="0" y1="0" x2="240" y2="240" gradientTransform="matrix(0.125,0,0,0.125,1,1)">
      <stop offset="0" style="stop-color:rgb(100%,100%,100%);stop-opacity:1;"/>
      <stop offset="1" style="stop-color:rgb(87.843138%,87.843138%,87.843138%);stop-opacity:1;"/>
    </linearGradient>
    <linearGradient id="linear9" gradientUnits="userSpaceOnUse" x1="0" y1="0" x2="240" y2="240" gradientTransform="matrix(0.125,0,0,0.125,1,1)">
      <stop offset="0" style="stop-color:rgb(100%,100%,100%);stop-opacity:1;"/>
      <stop offset="1" style="stop-color:rgb(87.843138%,87.843138%,87.843138%);stop-opacity:1;"/>
    </linearGradient>
    <linearGradient id="linear10" gradientUnits="userSpaceOnUse" x1="0" y1="0" x2="240" y2="240" gradientTransform="matrix(0.125,0,0,0.125,1,1)">
      <stop offset="0" style="stop-color:rgb(100%,100%,100%);stop-opacity:1;"/>
      <stop offset="1" style="stop-color:rgb(87.843138%,87.843138%,87.843138%);stop-opacity:1;"/>
    </linearGradient>
    <linearGradient id="linear11" gradientUnits="userSpaceOnUse" x1="0" y1="0" x2="240" y2="240" gradientTransform="matrix(0.125,0,0,0.125,1,1)">
      <stop offset="0" style="stop-color:rgb(100%,100%,100%);stop-opacity:1;"/>
      <stop offset="1" style="stop-color:rgb(87.843138%,87.843138%,87.843138%);stop-opacity:1;"/>
    </linearGradient>
    <linearGradient id="linear12" gradientUnits="userSpaceOnUse" x1="0" y1="0" x2="240" y2="240" gradientTransform="matrix(0.125,0,0,0.125,1,1)">
      <stop offset="0" style="stop-color:rgb(100%,100%,100%);stop-opacity:1;"/>
      <stop offset="1" style="stop-color:rgb(87.843138%,87.843138%,87.843138%);stop-opacity:1;"/>
    </linearGradient>
  </defs>
  <g id="surface1">
    <path style=" stroke:none;fill-rule:nonzero;fill:url(#linear0);" d="M 2.75 1 L 29.25 1 C 30.214844 1 31 1.785156 31 2.75 L 31 29.25 C 31 30.214844 30.214844 31 29.25 31 L 2.75 31 C 1.785156 31 1 30.214844 1 29.25 L 1 2.75 C 1 1.785156 1.785156 1 2.75 1 Z M 2.75 1 "/>
    <path style=" stroke:none;fill-rule:nonzero;fill:url(#linear1);" d="M 5.957031 4.515625 L 12.957031 4.515625 C 13.785156 4.515625 14.457031 5.1875 14.457031 6.015625 L 14.457031 10.015625 C 14.457031 10.847656 13.785156 11.515625 12.957031 11.515625 L 5.957031 11.515625 C 5.128906 11.515625 4.457031 10.847656 4.457031 10.015625 L 4.457031 6.015625 C 4.457031 5.1875 5.128906 4.515625 5.957031 4.515625 Z M 5.957031 4.515625 "/>
    <path style=" stroke:none;fill-rule:nonzero;fill:url(#linear2);" d="M 18.957031 4.515625 L 25.957031 4.515625 C 26.785156 4.515625 27.457031 5.1875 27.457031 6.015625 L 27.457031 10.015625 C 27.457031 10.847656 26.785156 11.515625 25.957031 11.515625 L 18.957031 11.515625 C 18.128906 11.515625 17.457031 10.847656 17.457031 10.015625 L 17.457031 6.015625 C 17.457031 5.1875 18.128906 4.515625 18.957031 4.515625 Z M 18.957031 4.515625 "/>
    <path style=" stroke:none;fill-rule:nonzero;fill:url(#linear3);" d="M 5.957031 12.515625 L 12.957031 12.515625 C 13.785156 12.515625 14.457031 13.1875 14.457031 14.015625 L 14.457031 18.015625 C 14.457031 18.847656 13.785156 19.515625 12.957031 19.515625 L 5.957031 19.515625 C 5.128906 19.515625 4.457031 18.847656 4.457031 18.015625 L 4.457031 14.015625 C 4.457031 13.1875 5.128906 12.515625 5.957031 12.515625 Z M 5.957031 12.515625 "/>
    <path style=" stroke:none;fill-rule:nonzero;fill:url(#linear4);" d="M 18.957031 12.515625 L 25.957031 12.515625 C 26.785156 12.515625 27.457031 13.1875 27.457031 14.015625 L 27.457031 18.015625 C 27.457031 18.847656 26.785156 19.515625 25.957031 19.515625 L 18.957031 19.515625 C 18.128906 19.515625 17.457031 18.847656 17.457031 18.015625 L 17.457031 14.015625 C 17.457031 13.1875 18.128906 12.515625 18.957031 12.515625 Z M 18.957031 12.515625 "/>
    <path style=" stroke:none;fill-rule:nonzero;fill:url(#linear5);" d="M 5.957031 20.515625 L 12.957031 20.515625 C 13.785156 20.515625 14.457031 21.1875 14.457031 22.015625 L 14.457031 26.015625 C 14.457031 26.847656 13.785156 27.515625 12.957031 27.515625 L 5.957031 27.515625 C 5.128906 27.515625 4.457031 26.847656 4.457031 26.015625 L 4.457031 22.015625 C 4.457031 21.1875 5.128906 20.515625 5.957031 20.515625 Z M 5.957031 20.515625 "/>
    <path style=" stroke:none;fill-rule:nonzero;fill:url(#linear6);" d="M 18.957031 20.515625 L 25.957031 20.515625 C 26.785156 20.515625 27.457031 21.1875 27.457031 22.015625 L 27.457031 26.015625 C 27.457031 26.847656 26.785156 27.515625 25.957031 27.515625 L 18.957031 27.515625 C 18.128906 27.515625 17.457031 26.847656 17.457031 26.015625 L 17.457031 22.015625 C 17.457031 21.1875 18.128906 20.515625 18.957031 20.515625 Z M 18.957031 20.515625 "/>
    <path style=" stroke:none;fill-rule:nonzero;fill:url(#linear7);" d="M 5.5 4 L 12.5 4 C 13.328125 4 14 4.671875 14 5.5 L 14 9.5 C 14 10.328125 13.328125 11 12.5 11 L 5.5 11 C 4.671875 11 4 10.328125 4 9.5 L 4 5.5 C 4 4.671875 4.671875 4 5.5 4 Z M 5.5 4 "/>
    <path style=" stroke:none;fill-rule:nonzero;fill:url(#linear8);" d="M 18.5 4 L 25.5 4 C 26.328125 4 27 4.671875 27 5.5 L 27 9.5 C 27 10.328125 26.328125 11 25.5 11 L 18.5 11 C 17.671875 11 17 10.328125 17 9.5 L 17 5.5 C 17 4.671875 17.671875 4 18.5 4 Z M 18.5 4 "/>
    <path style=" stroke:none;fill-rule:nonzero;fill:url(#linear9);" d="M 5.5 12 L 12.5 12 C 13.328125 12 14 12.671875 14 13.5 L 14 17.5 C 14 18.328125 13.328125 19 12.5 19 L 5.5 19 C 4.671875 19 4 18.328125 4 17.5 L 4 13.5 C 4 12.671875 4.671875 12 5.5 12 Z M 5.5 12 "/>
    <path style=" stroke:none;fill-rule:nonzero;fill:url(#linear10);" d="M 18.5 12 L 25.5 12 C 26.328125 12 27 12.671875 27 13.5 L 27 17.5 C 27 18.328125 26.328125 19 25.5 19 L 18.5 19 C 17.671875 19 17 18.328125 17 17.5 L 17 13.5 C 17 12.671875 17.671875 12 18.5 12 Z M 18.5 12 "/>
    <path style=" stroke:none;fill-rule:nonzero;fill:url(#linear11);" d="M 5.5 20 L 12.5 20 C 13.328125 20 14 20.671875 14 21.5 L 14 25.5 C 14 26.328125 13.328125 27 12.5 27 L 5.5 27 C 4.671875 27 4 26.328125 4 25.5 L 4 21.5 C 4 20.671875 4.671875 20 5.5 20 Z M 5.5 20 "/>
    <path style=" stroke:none;fill-rule:nonzero;fill:url(#linear12);" d="M 18.5 20 L 25.5 20 C 26.328125 20 27 20.671875 27 21.5 L 27 25.5 C 27 26.328125 26.328125 27 25.5 27 L 18.5 27 C 17.671875 27 17 26.328125 17 25.5 L 17 21.5 C 17 20.671875 17.671875 20 18.5 20 Z M 18.5 20 "/>
  </g>
</svg>