<?xml version="1.0" encoding="UTF-8" standalone="yes"?>
<svg xmlns="http://www.w3.org/2000/svg" xmlns:xlink="http://www.w3.org/1999/xlink" width="22" height="22" viewBox="0 0 22 22" version="1.1">
  <defs>
    <linearGradient id="linear0" gradientUnits="userSpaceOnUse" x1="0" y1="240" x2="0" y2="0" gradientTransform="matrix(0.0859375,0,0,0.0859375,0.6875,0.6875)">
      <stop offset="0" style="stop-color:rgb(74.117649%,55.29412%,28.235295%);stop-opacity:1;"/>
      <stop offset="1" style="stop-color:rgb(90.980393%,72.549021%,44.313726%);stop-opacity:1;"/>
    </linearGradient>
    <linearGradient id="linear1" gradientUnits="userSpaceOnUse" x1="0" y1="0" x2="240" y2="240" gradientTransform="matrix(0.0859375,0,0,0.0859375,-0.374398,-0.331684)">
      <stop offset="0" style="stop-color:rgb(20%,20%,20%);stop-opacity:0.501961;"/>
      <stop offset="1" style="stop-color:rgb(0%,0%,0%);stop-opacity:0.12549;"/>
    </linearGradient>
    <linearGradient id="linear2" gradientUnits="userSpaceOnUse" x1="0" y1="0" x2="240" y2="240" gradientTransform="matrix(0.0859375,0,0,0.0859375,-0.374398,-0.331684)">
      <stop offset="0" style="stop-color:rgb(20%,20%,20%);stop-opacity:0.501961;"/>
      <stop offset="1" style="stop-color:rgb(0%,0%,0%);stop-opacity:0.12549;"/>
    </linearGradient>
    <linearGradient id="linear3" gradientUnits="userSpaceOnUse" x1="0" y1="0" x2="240" y2="240" gradientTransform="matrix(0.0859375,0,0,0.0859375,-0.374398,-0.331684)">
      <stop offset="0" style="stop-color:rgb(20%,20%,20%);stop-opacity:0.501961;"/>
      <stop offset="1" style="stop-color:rgb(0%,0%,0%);stop-opacity:0.12549;"/>
    </linearGradient>
    <linearGradient id="linear4" gradientUnits="userSpaceOnUse" x1="0" y1="0" x2="240" y2="240" gradientTransform="matrix(0.0859375,0,0,0.0859375,-0.374398,-0.331684)">
      <stop offset="0" style="stop-color:rgb(20%,20%,20%);stop-opacity:0.501961;"/>
      <stop offset="1" style="stop-color:rgb(0%,0%,0%);stop-opacity:0.12549;"/>
    </linearGradient>
    <linearGradient id="linear5" gradientUnits="userSpaceOnUse" x1="0" y1="0" x2="240" y2="240" gradientTransform="matrix(0.0859375,0,0,0.0859375,-0.374398,-0.331684)">
      <stop offset="0" style="stop-color:rgb(20%,20%,20%);stop-opacity:0.501961;"/>
      <stop offset="1" style="stop-color:rgb(0%,0%,0%);stop-opacity:0.12549;"/>
    </linearGradient>
    <linearGradient id="linear6" gradientUnits="userSpaceOnUse" x1="0" y1="0" x2="240" y2="240" gradientTransform="matrix(0.0859375,0,0,0.0859375,-0.374398,-0.331684)">
      <stop offset="0" style="stop-color:rgb(20%,20%,20%);stop-opacity:0.501961;"/>
      <stop offset="1" style="stop-color:rgb(0%,0%,0%);stop-opacity:0.12549;"/>
    </linearGradient>
    <linearGradient id="linear7" gradientUnits="userSpaceOnUse" x1="0" y1="0" x2="240" y2="240" gradientTransform="matrix(0.0859375,0,0,0.0859375,0.6875,0.6875)">
      <stop offset="0" style="stop-color:rgb(100%,100%,100%);stop-opacity:1;"/>
      <stop offset="1" style="stop-color:rgb(87.843138%,87.843138%,87.843138%);stop-opacity:1;"/>
    </linearGradient>
    <linearGradient id="linear8" gradientUnits="userSpaceOnUse" x1="0" y1="0" x2="240" y2="240" gradientTransform="matrix(0.0859375,0,0,0.0859375,0.6875,0.6875)">
      <stop offset="0" style="stop-color:rgb(100%,100%,100%);stop-opacity:1;"/>
      <stop offset="1" style="stop-color:rgb(87.843138%,87.843138%,87.843138%);stop-opacity:1;"/>
    </linearGradient>
    <linearGradient id="linear9" gradientUnits="userSpaceOnUse" x1="0" y1="0" x2="240" y2="240" gradientTransform="matrix(0.0859375,0,0,0.0859375,0.6875,0.6875)">
      <stop offset="0" style="stop-color:rgb(100%,100%,100%);stop-opacity:1;"/>
      <stop offset="1" style="stop-color:rgb(87.843138%,87.843138%,87.843138%);stop-opacity:1;"/>
    </linearGradient>
    <linearGradient id="linear10" gradientUnits="userSpaceOnUse" x1="0" y1="0" x2="240" y2="240" gradientTransform="matrix(0.0859375,0,0,0.0859375,0.6875,0.6875)">
      <stop offset="0" style="stop-color:rgb(100%,100%,100%);stop-opacity:1;"/>
      <stop offset="1" style="stop-color:rgb(87.843138%,87.843138%,87.843138%);stop-opacity:1;"/>
    </linearGradient>
    <linearGradient id="linear11" gradientUnits="userSpaceOnUse" x1="0" y1="0" x2="240" y2="240" gradientTransform="matrix(0.0859375,0,0,0.0859375,0.6875,0.6875)">
      <stop offset="0" style="stop-color:rgb(100%,100%,100%);stop-opacity:1;"/>
      <stop offset="1" style="stop-color:rgb(87.843138%,87.843138%,87.843138%);stop-opacity:1;"/>
    </linearGradient>
    <linearGradient id="linear12" gradientUnits="userSpaceOnUse" x1="0" y1="0" x2="240" y2="240" gradientTransform="matrix(0.0859375,0,0,0.0859375,0.6875,0.6875)">
      <stop offset="0" style="stop-color:rgb(100%,100%,100%);stop-opacity:1;"/>
      <stop offset="1" style="stop-color:rgb(87.843138%,87.843138%,87.843138%);stop-opacity:1;"/>
    </linearGradient>
  </defs>
  <g id="surface1">
    <path style=" stroke:none;fill-rule:nonzero;fill:url(#linear0);" d="M 1.890625 0.6875 L 20.109375 0.6875 C 20.773438 0.6875 21.3125 1.226562 21.3125 1.890625 L 21.3125 20.109375 C 21.3125 20.773438 20.773438 21.3125 20.109375 21.3125 L 1.890625 21.3125 C 1.226562 21.3125 0.6875 20.773438 0.6875 20.109375 L 0.6875 1.890625 C 0.6875 1.226562 1.226562 0.6875 1.890625 0.6875 Z M 1.890625 0.6875 "/>
    <path style=" stroke:none;fill-rule:nonzero;fill:url(#linear1);" d="M 4.09375 3.105469 L 8.90625 3.105469 C 9.476562 3.105469 9.9375 3.566406 9.9375 4.136719 L 9.9375 6.886719 C 9.9375 7.457031 9.476562 7.917969 8.90625 7.917969 L 4.09375 7.917969 C 3.523438 7.917969 3.0625 7.457031 3.0625 6.886719 L 3.0625 4.136719 C 3.0625 3.566406 3.523438 3.105469 4.09375 3.105469 Z M 4.09375 3.105469 "/>
    <path style=" stroke:none;fill-rule:nonzero;fill:url(#linear2);" d="M 13.03125 3.105469 L 17.84375 3.105469 C 18.414062 3.105469 18.875 3.566406 18.875 4.136719 L 18.875 6.886719 C 18.875 7.457031 18.414062 7.917969 17.84375 7.917969 L 13.03125 7.917969 C 12.460938 7.917969 12 7.457031 12 6.886719 L 12 4.136719 C 12 3.566406 12.460938 3.105469 13.03125 3.105469 Z M 13.03125 3.105469 "/>
    <path style=" stroke:none;fill-rule:nonzero;fill:url(#linear3);" d="M 4.09375 8.605469 L 8.90625 8.605469 C 9.476562 8.605469 9.9375 9.066406 9.9375 9.636719 L 9.9375 12.386719 C 9.9375 12.957031 9.476562 13.417969 8.90625 13.417969 L 4.09375 13.417969 C 3.523438 13.417969 3.0625 12.957031 3.0625 12.386719 L 3.0625 9.636719 C 3.0625 9.066406 3.523438 8.605469 4.09375 8.605469 Z M 4.09375 8.605469 "/>
    <path style=" stroke:none;fill-rule:nonzero;fill:url(#linear4);" d="M 13.03125 8.605469 L 17.84375 8.605469 C 18.414062 8.605469 18.875 9.066406 18.875 9.636719 L 18.875 12.386719 C 18.875 12.957031 18.414062 13.417969 17.84375 13.417969 L 13.03125 13.417969 C 12.460938 13.417969 12 12.957031 12 12.386719 L 12 9.636719 C 12 9.066406 12.460938 8.605469 13.03125 8.605469 Z M 13.03125 8.605469 "/>
    <path style=" stroke:none;fill-rule:nonzero;fill:url(#linear5);" d="M 4.09375 14.105469 L 8.90625 14.105469 C 9.476562 14.105469 9.9375 14.566406 9.9375 15.136719 L 9.9375 17.886719 C 9.9375 18.457031 9.476562 18.917969 8.90625 18.917969 L 4.09375 18.917969 C 3.523438 18.917969 3.0625 18.457031 3.0625 17.886719 L 3.0625 15.136719 C 3.0625 14.566406 3.523438 14.105469 4.09375 14.105469 Z M 4.09375 14.105469 "/>
    <path style=" stroke:none;fill-rule:nonzero;fill:url(#linear6);" d="M 13.03125 14.105469 L 17.84375 14.105469 C 18.414062 14.105469 18.875 14.566406 18.875 15.136719 L 18.875 17.886719 C 18.875 18.457031 18.414062 18.917969 17.84375 18.917969 L 13.03125 18.917969 C 12.460938 18.917969 12 18.457031 12 17.886719 L 12 15.136719 C 12 14.566406 12.460938 14.105469 13.03125 14.105469 Z M 13.03125 14.105469 "/>
    <path style=" stroke:none;fill-rule:nonzero;fill:url(#linear7);" d="M 3.78125 2.75 L 8.59375 2.75 C 9.164062 2.75 9.625 3.210938 9.625 3.78125 L 9.625 6.53125 C 9.625 7.101562 9.164062 7.5625 8.59375 7.5625 L 3.78125 7.5625 C 3.210938 7.5625 2.75 7.101562 2.75 6.53125 L 2.75 3.78125 C 2.75 3.210938 3.210938 2.75 3.78125 2.75 Z M 3.78125 2.75 "/>
    <path style=" stroke:none;fill-rule:nonzero;fill:url(#linear8);" d="M 12.71875 2.75 L 17.53125 2.75 C 18.101562 2.75 18.5625 3.210938 18.5625 3.78125 L 18.5625 6.53125 C 18.5625 7.101562 18.101562 7.5625 17.53125 7.5625 L 12.71875 7.5625 C 12.148438 7.5625 11.6875 7.101562 11.6875 6.53125 L 11.6875 3.78125 C 11.6875 3.210938 12.148438 2.75 12.71875 2.75 Z M 12.71875 2.75 "/>
    <path style=" stroke:none;fill-rule:nonzero;fill:url(#linear9);" d="M 3.78125 8.25 L 8.59375 8.25 C 9.164062 8.25 9.625 8.710938 9.625 9.28125 L 9.625 12.03125 C 9.625 12.601562 9.164062 13.0625 8.59375 13.0625 L 3.78125 13.0625 C 3.210938 13.0625 2.75 12.601562 2.75 12.03125 L 2.75 9.28125 C 2.75 8.710938 3.210938 8.25 3.78125 8.25 Z M 3.78125 8.25 "/>
    <path style=" stroke:none;fill-rule:nonzero;fill:url(#linear10);" d="M 12.71875 8.25 L 17.53125 8.25 C 18.101562 8.25 18.5625 8.710938 18.5625 9.28125 L 18.5625 12.03125 C 18.5625 12.601562 18.101562 13.0625 17.53125 13.0625 L 12.71875 13.0625 C 12.148438 13.0625 11.6875 12.601562 11.6875 12.03125 L 11.6875 9.28125 C 11.6875 8.710938 12.148438 8.25 12.71875 8.25 Z M 12.71875 8.25 "/>
    <path style=" stroke:none;fill-rule:nonzero;fill:url(#linear11);" d="M 3.78125 13.75 L 8.59375 13.75 C 9.164062 13.75 9.625 14.210938 9.625 14.78125 L 9.625 17.53125 C 9.625 18.101562 9.164062 18.5625 8.59375 18.5625 L 3.78125 18.5625 C 3.210938 18.5625 2.75 18.101562 2.75 17.53125 L 2.75 14.78125 C 2.75 14.210938 3.210938 13.75 3.78125 13.75 Z M 3.78125 13.75 "/>
    <path style=" stroke:none;fill-rule:nonzero;fill:url(#linear12);" d="M 12.71875 13.75 L 17.53125 13.75 C 18.101562 13.75 18.5625 14.210938 18.5625 14.78125 L 18.5625 17.53125 C 18.5625 18.101562 18.101562 18.5625 17.53125 18.5625 L 12.71875 18.5625 C 12.148438 18.5625 11.6875 18.101562 11.6875 17.53125 L 11.6875 14.78125 C 11.6875 14.210938 12.148438 13.75 12.71875 13.75 Z M 12.71875 13.75 "/>
  </g>
</svg>